<svg xmlns="http://www.w3.org/2000/svg" width="66" height="66" viewBox="0 0 66 66"><g><g><circle cx="33" cy="33" r="33" fill="#346df4"/><g><g><rect width="36" height="36" x="15" y="11" fill="none"/><rect width="35" height="19" x="16" y="28" fill="#85a7f8" rx="1" ry="1"/><rect width="3" height="3" x="18" y="30" fill="#fff"/><rect width="3" height="3" x="22" y="30" fill="#fff"/><rect width="3" height="3" x="26" y="30" fill="#fff"/><rect width="3" height="3" x="30" y="30" fill="#fff"/><rect width="3" height="3" x="34" y="30" fill="#fff"/><rect width="3" height="3" x="38" y="30" fill="#fff"/><rect width="3" height="3" x="42" y="30" fill="#fff"/><rect width="3" height="3" x="46" y="30" fill="#fff"/><rect width="3" height="3" x="18" y="34" fill="#fff"/><rect width="3" height="3" x="22" y="34" fill="#fff"/><rect width="3" height="3" x="26" y="34" fill="#fff"/><rect width="3" height="3" x="30" y="34" fill="#fff"/><rect width="3" height="3" x="34" y="34" fill="#fff"/><rect width="3" height="3" x="38" y="34" fill="#fff"/><rect width="3" height="3" x="42" y="34" fill="#fff"/><rect width="3" height="3" x="46" y="34" fill="#fff"/><rect width="3" height="3" x="18" y="38" fill="#fff"/><rect width="3" height="3" x="22" y="38" fill="#fff"/><rect width="3" height="3" x="26" y="38" fill="#fff"/><rect width="3" height="3" x="30" y="38" fill="#fff"/><rect width="3" height="3" x="34" y="38" fill="#fff"/><rect width="3" height="3" x="42" y="38" fill="#fff"/><rect width="3" height="3" x="18" y="42" fill="#fff"/><rect width="15" height="3" x="22" y="42" fill="#fff"/><rect width="3" height="3" x="42" y="42" fill="#fff"/><rect width="3" height="3" x="38" y="42" fill="#fff"/><rect width="3" height="3" x="46" y="42" fill="#fff"/></g><path fill="none" stroke="#85a7f8" stroke-linecap="round" stroke-miterlimit="10" stroke-width="1.5" d="M32.888,28.5c-5-10,12.98-5,7.98-13"/></g></g></g></svg>