<svg xmlns="http://www.w3.org/2000/svg" xmlns:xlink="http://www.w3.org/1999/xlink" width="320" height="200" viewBox="0 0 320 200"><defs><linearGradient id="Unbenannter_Verlauf_17" x1="207.815" x2="207.815" y1="133.039" y2="139.7" data-name="Unbenannter Verlauf 17" gradientUnits="userSpaceOnUse"><stop offset="0" stop-color="#333"/><stop offset="1" stop-color="#222"/></linearGradient><clipPath id="clip-path"><rect width="127.261" height="89.878" x="74.369" y="91.386" fill="#674dff"/></clipPath><linearGradient id="Unbenannter_Verlauf_85" x1="138" x2="138" y1="181.049" y2="157.325" data-name="Unbenannter Verlauf 85" gradientUnits="userSpaceOnUse"><stop offset="0" stop-color="#222"/><stop offset="1" stop-color="#222" stop-opacity="0"/></linearGradient><radialGradient id="Unbenannter_Verlauf_40" cx="156.875" cy="128.307" r="31.309" data-name="Unbenannter Verlauf 40" gradientUnits="userSpaceOnUse"><stop offset="0" stop-color="#fafafa"/><stop offset="1" stop-color="#838486"/></radialGradient></defs><g style="isolation:isolate"><g><g><rect width="32" height="124" x="46" y="66" fill="#2970ff" rx="2" ry="2"/><rect width="24" height="14" x="50" y="78" fill="#2970ff" opacity=".4" style="mix-blend-mode:multiply"/><rect width="24" height="14" x="50" y="94" fill="#2970ff" opacity=".4" style="mix-blend-mode:multiply"/><rect width="40" height="190" x="142" fill="#4d4dff" rx="1.902" ry="1.902"/><rect width="36" height="4" x="144" y="32" fill="#3939b2" rx="2" ry="2"/><rect width="36" height="4" x="144" y="68" fill="#3939b2" rx="2" ry="2"/><rect width="28" height="156" x="114" y="34" fill="#e52e3d" rx="2" ry="2"/><rect width="28" height="100" x="244" y="90" fill="#4d4dff" rx="2" ry="2"/><rect width="26" height="166" x="196" y="24" fill="#5ce5e5" rx="2" ry="2"/><rect width="14" height="178" x="182" y="12" fill="#2970ff" rx="1.957" ry="1.957"/><rect width="20" height="174" x="94" y="16" fill="#999" rx="2" ry="2"/><rect width="12" height="54" x="98" y="30" fill="#c6ba1a"/><rect width="4" height="14" x="126" y="50" fill="#fff" opacity=".4"/><rect width="4" height="16" x="126" y="68" fill="#fff" opacity=".4"/><g><g><rect width="96" height="138" x="166" y="52" fill="#ddd" rx="4" ry="4"/><rect width="76" height="102" x="176.268" y="66.995" fill="#f6f6f6"/></g><rect width="24" height="2" x="184" y="160" fill="#bbb"/><rect width="60" height="2" x="184" y="156" fill="#bbb"/><rect width="60" height="2" x="184" y="152" fill="#bbb"/><rect width="60" height="2" x="184" y="148" fill="#bbb"/><rect width="46" height="2" x="184" y="144" fill="#bbb"/><rect width="60" height="2" x="184" y="140" fill="#bbb"/><rect width="60" height="2" x="184" y="136" fill="#bbb"/><rect width="60" height="2" x="184" y="132" fill="#bbb"/><rect width="60" height="2" x="184" y="128" fill="#bbb"/><rect width="60" height="2" x="184" y="124" fill="#bbb"/><rect width="60" height="2" x="184" y="120" fill="#bbb"/><rect width="60" height="2" x="184" y="116" fill="#bbb"/><rect width="60" height="2" x="184" y="112" fill="#bbb"/><rect width="32" height="2" x="198" y="102" fill="#bbb"/></g><g><rect width="152" height="107.35" x="62" y="82.65" fill="#222" rx="5.964" ry="5.964"/><path fill="url(#Unbenannter_Verlauf_17)" d="M211.164,136.325a3.349,3.349,0,1,1-3.349-3.349A3.348,3.348,0,0,1,211.164,136.325Z"/><g><rect width="127.261" height="89.878" x="74.369" y="91.386" fill="#674dff"/><g clip-path="url(#clip-path)"><g><g><line x1="99.538" x2="126.312" y1="136.806" y2="158.711" fill="none" stroke="#9280ff" stroke-linejoin="round" stroke-width=".4"/><polyline fill="none" stroke="#9280ff" stroke-linejoin="round" stroke-width=".4" points="104.558 97.885 104.558 116.444 129.481 99.296"/><polyline fill="none" stroke="#9280ff" stroke-linejoin="round" stroke-width=".4" points="129.481 99.296 104.558 116.444 99.538 136.806"/><polygon fill="none" stroke="#9280ff" stroke-linejoin="round" stroke-width=".4" points="72 86.699 67.592 111.249 89.954 102.516 72 86.699"/><polygon fill="none" stroke="#9280ff" stroke-linejoin="round" stroke-width=".4" points="69.113 169.968 75 187 97.865 162.21 69.113 169.968"/><polygon fill="none" stroke="#9280ff" stroke-linejoin="round" stroke-width=".4" points="206.632 164.34 201 186 178.293 167.078 206.632 164.34"/><polyline fill="none" stroke="#9280ff" stroke-linejoin="round" stroke-width=".4" points="67.592 111.249 50.25 95.885 72 86.699 87.52 66.373 89.954 102.516 72 86.699"/><polygon fill="none" stroke="#9280ff" stroke-linejoin="round" stroke-width=".4" points="72 86.699 63.485 67.97 87.52 66.373 72 86.699"/><polyline fill="none" stroke="#9280ff" stroke-linejoin="round" stroke-width=".4" points="89.954 102.516 104.558 116.444 104.558 97.885"/><polyline fill="none" stroke="#9280ff" stroke-linejoin="round" stroke-width=".4" points="104.558 97.885 87.52 66.373 89.954 102.516"/><polyline fill="none" stroke="#9280ff" stroke-linejoin="round" stroke-width=".4" points="104.558 97.885 164.19 68.046 129.481 99.296"/><polygon fill="none" stroke="#9280ff" stroke-linejoin="round" stroke-width=".4" points="99.538 136.806 67.592 111.249 89.954 102.516 104.558 116.444 99.538 136.806"/><polygon fill="none" stroke="#9280ff" stroke-linejoin="round" stroke-width=".4" points="67.592 111.249 104.558 116.444 89.954 102.516 67.592 111.249"/><polyline fill="none" stroke="#9280ff" stroke-linejoin="round" stroke-width=".4" points="129.481 99.296 178.293 167.078 126.312 158.711"/><polygon fill="none" stroke="#9280ff" stroke-linejoin="round" stroke-width=".4" points="97.865 162.21 99.538 136.806 126.312 158.711 97.865 162.21"/><polyline fill="none" stroke="#9280ff" stroke-linejoin="round" stroke-width=".4" points="67.592 111.249 99.538 136.806 97.865 162.21"/><polygon fill="none" stroke="#9280ff" stroke-linejoin="round" stroke-width=".4" points="69.113 169.968 20.309 163.281 67.592 111.249 69.113 169.968"/><polygon fill="none" stroke="#9280ff" stroke-linejoin="round" stroke-width=".4" points="69.113 169.968 64.448 187.158 75 187 69.113 169.968"/><polygon fill="none" stroke="#9280ff" stroke-linejoin="round" stroke-width=".4" points="64.448 187.158 20.309 163.281 69.113 169.968 64.448 187.158"/><polygon fill="none" stroke="#9280ff" stroke-linejoin="round" stroke-width=".4" points="64.448 187.158 66.477 206.173 44.711 194.207 64.448 187.158"/><polygon fill="none" stroke="#9280ff" stroke-linejoin="round" stroke-width=".4" points="75 187 66.477 206.173 97.865 206.173 75 187"/><polygon fill="none" stroke="#9280ff" stroke-linejoin="round" stroke-width=".4" points="97.865 162.21 129.76 209.419 126.312 158.711 97.865 162.21"/><polygon fill="none" stroke="#9280ff" stroke-linejoin="round" stroke-width=".4" points="129.76 209.419 75 187 97.865 162.21 129.76 209.419"/><polygon fill="none" stroke="#9280ff" stroke-linejoin="round" stroke-width=".4" points="178.293 167.078 129.76 209.419 126.312 158.711 178.293 167.078"/><polygon fill="none" stroke="#9280ff" stroke-linejoin="round" stroke-width=".4" points="201 186 129.76 209.419 178.293 167.078 201 186"/><polygon fill="none" stroke="#9280ff" stroke-linejoin="round" stroke-width=".4" points="201 186 219.13 194.089 206.632 164.34 201 186"/><polygon fill="none" stroke="#9280ff" stroke-linejoin="round" stroke-width=".4" points="129.481 99.296 175.061 113.395 178.293 167.078 129.481 99.296"/><polygon fill="none" stroke="#9280ff" stroke-linejoin="round" stroke-width=".4" points="178.293 167.078 211.703 121.391 175.061 113.395 178.293 167.078"/><polygon fill="none" stroke="#9280ff" stroke-linejoin="round" stroke-width=".4" points="206.632 164.34 211.703 121.391 178.293 167.078 206.632 164.34"/><polygon fill="none" stroke="#9280ff" stroke-linejoin="round" stroke-width=".4" points="206.632 164.34 251.255 108.409 211.703 121.391 206.632 164.34"/><polyline fill="none" stroke="#9280ff" stroke-linejoin="round" stroke-width=".4" points="175.061 113.395 238.071 92.994 211.703 121.391"/><polygon fill="none" stroke="#9280ff" stroke-linejoin="round" stroke-width=".4" points="164.19 68.046 175.061 113.395 129.481 99.296 164.19 68.046"/><polygon fill="none" stroke="#9280ff" stroke-linejoin="round" stroke-width=".4" points="175.061 113.395 204.604 77.402 164.19 68.046 175.061 113.395"/></g><g><circle cx="126.312" cy="158.711" r="4.438" fill="#674dff"/><path fill="#9280ff" d="M126.312,154.523a4.189,4.189,0,1,1-4.189,4.188,4.193,4.193,0,0,1,4.189-4.188m0-.5A4.689,4.689,0,1,0,131,158.711a4.688,4.688,0,0,0-4.688-4.688Z"/></g><g><path fill="#674dff" d="M129.481,102.527a3.231,3.231,0,1,1,3.232-3.231A3.235,3.235,0,0,1,129.481,102.527Z"/><path fill="#9280ff" d="M129.481,96.315A2.982,2.982,0,1,1,126.5,99.3a2.985,2.985,0,0,1,2.981-2.981m0-.5a3.482,3.482,0,1,0,3.482,3.481,3.482,3.482,0,0,0-3.482-3.481Z"/></g><g><path fill="#674dff" d="M99.538,140.062a3.256,3.256,0,1,1,3.255-3.256A3.26,3.26,0,0,1,99.538,140.062Z"/><path fill="#9280ff" d="M99.538,133.8a3.006,3.006,0,1,1-3.006,3.006,3.009,3.009,0,0,1,3.006-3.006m0-.5a3.506,3.506,0,1,0,3.506,3.506,3.506,3.506,0,0,0-3.506-3.506Z"/></g><g><path fill="#674dff" d="M104.558,122.636a6.192,6.192,0,1,1,6.192-6.193A6.2,6.2,0,0,1,104.558,122.636Z"/><path fill="#9280ff" d="M104.558,110.5a5.942,5.942,0,1,1-5.942,5.942,5.949,5.949,0,0,1,5.942-5.942m0-.5A6.442,6.442,0,1,0,111,116.444,6.442,6.442,0,0,0,104.558,110Z"/></g><g><path fill="#674dff" d="M178.293,170.121a3.043,3.043,0,1,1,3.042-3.043A3.046,3.046,0,0,1,178.293,170.121Z"/><path fill="#9280ff" d="M178.293,164.285a2.793,2.793,0,1,1-2.793,2.793,2.8,2.8,0,0,1,2.793-2.793m0-.5a3.293,3.293,0,1,0,3.292,3.293,3.293,3.293,0,0,0-3.292-3.293Z"/></g><circle cx="175.061" cy="113.395" r="2.395" fill="#4d4dff"/><g><circle cx="97.865" cy="162.21" r="1.96" fill="#674dff"/><path fill="#9280ff" d="M97.865,160.5a1.71,1.71,0,1,1-1.71,1.71,1.712,1.712,0,0,1,1.71-1.71m0-.5a2.21,2.21,0,1,0,2.21,2.21,2.209,2.209,0,0,0-2.21-2.21Z"/></g><g><circle cx="104.558" cy="97.885" r="1.96" fill="#674dff"/><path fill="#9280ff" d="M104.558,96.175a1.71,1.71,0,1,1-1.71,1.71,1.712,1.712,0,0,1,1.71-1.71m0-.5a2.21,2.21,0,1,0,2.21,2.21,2.209,2.209,0,0,0-2.21-2.21Z"/></g><g><path fill="#674dff" d="M89.954,104.476a1.96,1.96,0,1,1,1.961-1.96A1.963,1.963,0,0,1,89.954,104.476Z"/><path fill="#9280ff" d="M89.954,100.805a1.711,1.711,0,1,1-1.71,1.711,1.713,1.713,0,0,1,1.71-1.711m0-.5a2.211,2.211,0,1,0,2.21,2.211,2.211,2.211,0,0,0-2.21-2.211Z"/></g></g></g></g></g><rect width="19" height="2" x="105" y="128" fill="#5ce5e5"/><rect width="14" height="1" x="105" y="131" fill="#5ce5e5"/><rect width="127.261" height="24" x="74.369" y="157.264" fill="url(#Unbenannter_Verlauf_85)"/><rect width="37" height="2" x="78" y="170" fill="#e52e3d"/><rect width="83" height="2" x="115" y="170" fill="#858585"/><circle cx="115" cy="171" r="2" fill="#e52e3d"/><polygon fill="#fff" points="86.33 176.5 82 174 82 179 86.33 176.5"/><polygon fill="#fff" points="92.598 176.5 90 175 90 178 92.598 176.5"/><rect width="1" height="3" x="93" y="175" fill="#fff"/><rect width="2" height="3" x="98" y="175" fill="#fff"/><path fill="none" stroke="#fff" stroke-miterlimit="10" d="M103,174.5c.828,0,1.5.9,1.5,2s-.672,2-1.5,2"/><g><polygon fill="#fff" points="189 177 189 178 190 178 190 179 191 179 191 177 189 177"/><polygon fill="#fff" points="193 175 193 174 192 174 192 176 194 176 194 175 193 175"/><polygon fill="#fff" points="190 175 189 175 189 176 191 176 191 174 190 174 190 175"/><polygon fill="#fff" points="192 177 192 179 193 179 193 178 194 178 194 177 192 177"/></g><polygon fill="#fff" points="100 175 100 178 102 179 102 174 100 175"/><rect width="320" height="10" y="190" fill="#ca9e67"/><g><path fill="#222" d="M178,99H146a6,6,0,0,0-6,6v79a6,6,0,0,0,6,6h32a6,6,0,0,0,6-6V105a6,6,0,0,0-6-6Z"/><path fill="#fff" d="M178,101a4,4,0,0,1,4,4v79a4,4,0,0,1-4,4H146a4,4,0,0,1-4-4V105a4,4,0,0,1,4-4h32"/><rect width="40" height="1" x="142" y="112" fill="#bbb" opacity=".5"/><path fill="#222" d="M151,100h22a0,0,0,0,1,0,0v2a2,2,0,0,1-2,2H153a2,2,0,0,1-2-2v-2A0,0,0,0,1,151,100Z"/><rect width="38" height="4" x="143" y="106" fill="#e6e6e6" rx="1" ry="1"/><rect width="22" height="2" x="144" y="107" fill="#ccc"/><g><polygon fill="#999" points="161.899 121.177 158.788 122.348 158.364 122.348 158.384 121.904 158.101 121.722 157.556 121.803 157.232 122.025 156.99 122.348 157.192 122.571 157.414 122.692 157.434 122.894 156.97 123.076 156.444 123.217 154.808 123.217 154.303 123.359 153.253 123.924 152.283 125.338 152.606 127.601 163.434 126.126 161.899 121.177"/><path fill="url(#Unbenannter_Verlauf_40)" d="M171.613,120.376l-.34.094-.728-.849-.121-.363-.727-.728h-.364l-.969-.727-.849.121.606.485v.243l-.485.121-.363-.121-.364-.364-.364-.121-1.7.606-1.333.363h-.97l-.121-.363v-.243l-.889-.02-.363.323.06.182.3.243-.181.181-.728.283-.929.121.162.667.1.748h.383l.606-.566.263-.061.424.606-.02.364-.262.283-.829.02-.323.323.343,1.96-1.656.262-1.111.263-.263.222-.04.223.081.2.181.1-.02.323-.283.242-.464.182h-.728l-.262-.3v-.242l.384-.243v-.242l-.4-.263h-.788l-1.192.263-.4.06-.142-.222v-.97l.243-.666.464-.505.425.141.3.02.262-.161.162-.384-.02-.424-.3-.283-.182.1-.081.1-.2-.02-.141-.2v-.384l.121-.2.667-1.212.121-.223-.041-.222-.121-.121-.3.2-.162-.121V119.3l.445-.444.444.04.223-.1.262-.626-.081-.2-.3.1-.363.161-.142.182.081-.384-.263.061-1.131.869-.767.808-.485.666-.263.142-.1.3-.5.532a12,12,0,1,0,19.916-1.03Z"/><rect width="1.939" height="1.939" x="166.04" y="129.5" fill="#777" opacity=".5" transform="translate(-33.85 62.87) rotate(-19.397)"/><rect width="1.063" height="1.939" x="166.861" y="134.293" fill="#777" opacity=".5" transform="translate(11.115 -12.702) rotate(4.495)"/><rect width="1.939" height="1.939" x="163.657" y="124.126" fill="#777" opacity=".5" transform="translate(-32.201 61.773) rotate(-19.397)"/><rect width="1.556" height="1.556" x="162.424" y="119.742" fill="#777" opacity=".5" transform="translate(-34.09 73.236) rotate(-22.967)"/><rect width="1.556" height="1.556" x="170.545" y="122.742" fill="#777" opacity=".5" transform="translate(-34.617 76.643) rotate(-22.967)"/><rect width="1.301" height="1.556" x="168.188" y="118.955" fill="#777" opacity=".5" transform="translate(-38.13 117.241) rotate(-34.653)"/><rect width="1.939" height="1.939" x="157.232" y="132.571" fill="#777" opacity=".5"/><rect width="1.708" height="1.708" x="159.076" y="136.959" fill="#777" opacity=".5" transform="translate(-26.624 38.982) rotate(-12.838)"/><rect width=".957" height="1.708" x="172.39" y="127.171" fill="#777" opacity=".5"/><polygon fill="#777" points="171.91 133.9 171.91 132.192 172.867 132.192 171.91 133.9" opacity=".5"/><rect width="1.939" height="1.939" x="155.98" y="127.359" fill="#777" opacity=".5" transform="translate(-12.948 17.711) rotate(-6.203)"/><rect width=".835" height="1.939" x="151.441" y="131.035" fill="#777" opacity=".5" transform="translate(-27.027 39.884) rotate(-13.752)"/><rect width=".835" height="1.939" x="150.875" y="126.268" fill="#777" opacity=".5"/><rect width=".835" height="1.312" x="151.966" y="121.975" fill="#777" opacity=".5" transform="translate(81.731 -59.762) rotate(30)"/><rect width=".334" height="1.567" x="153.859" y="118.698" fill="#777" opacity=".5" transform="translate(80.376 -61.005) rotate(30)"/><polygon fill="#777" points="168.303 137.561 167.727 137.364 166.045 138.242 166.091 138.455 168.303 137.561" opacity=".5"/><polygon fill="#777" points="161.652 139.106 162.53 139.061 162.955 139.439 161.727 139.318 161.652 139.106" opacity=".5"/><polygon fill="#777" points="153.727 135.712 155.485 137.273 155.379 137.485 153.576 135.879 153.727 135.712" opacity=".5"/></g><rect width="28" height="2" x="148" y="142" fill="#222" opacity=".5"/><rect width="15" height="1" x="145" y="146" fill="#2970ff" opacity=".5"/><rect width="11" height="1" x="163" y="149" fill="#2970ff" opacity=".5"/><rect width="11" height="1" x="154" y="154" fill="#2970ff" opacity=".5"/><rect width="13" height="1" x="145" y="157" fill="#2970ff" opacity=".5"/><rect width="10" height="1" x="169" y="160" fill="#2970ff" opacity=".5"/><rect width="6" height="1" x="145" y="163" fill="#2970ff" opacity=".5"/><rect width="10" height="1" x="155" y="166" fill="#2970ff" opacity=".5"/><rect width="14" height="1" x="150" y="178" fill="#2970ff" opacity=".5"/><rect width="7" height="1" x="168" y="181" fill="#2970ff" opacity=".5"/><rect width="6" height="1" x="173" y="146" fill="#2970ff" opacity=".5"/><rect width="11" height="1" x="161" y="146" fill="#222" opacity=".5"/><rect width="8" height="1" x="145" y="154" fill="#222" opacity=".3"/><rect width="13" height="1" x="166" y="154" fill="#222" opacity=".3"/><rect width="16" height="1" x="159" y="157" fill="#222" opacity=".3"/><rect width="23" height="1" x="145" y="160" fill="#222" opacity=".3"/><rect width="25" height="1" x="152" y="163" fill="#222" opacity=".3"/><rect width="9" height="1" x="145" y="166" fill="#222" opacity=".3"/><rect width="13" height="1" x="166" y="166" fill="#222" opacity=".3"/><rect width="16" height="1" x="145" y="169" fill="#222" opacity=".3"/><rect width="34" height="1" x="145" y="172" fill="#222" opacity=".3"/><rect width="32" height="1" x="145" y="175" fill="#222" opacity=".3"/><rect width="4" height="1" x="145" y="178" fill="#222" opacity=".3"/><rect width="14" height="1" x="165" y="178" fill="#222" opacity=".3"/><rect width="22" height="1" x="145" y="181" fill="#222" opacity=".3"/><rect width="12" height="1" x="150" y="149" fill="#222" opacity=".5"/><rect width="14" height="1" x="156" y="186" fill="#222" rx=".5" ry=".5"/></g></g></g></g></svg>